<?xml version="1.0" standalone="no"?>
<!DOCTYPE svg PUBLIC "-//W3C//DTD SVG 20010904//EN"
 "http://www.w3.org/TR/2001/REC-SVG-20010904/DTD/svg10.dtd">
<svg version="1.0" xmlns="http://www.w3.org/2000/svg"
 width="1406.000000pt" height="1406.000000pt" viewBox="0 0 1406.000000 1406.000000"
 preserveAspectRatio="xMidYMid meet">
<metadata>
Created by potrace 1.11, written by Peter Selinger 2001-2013
</metadata>
<g transform="translate(0.000000,1406.000000) scale(0.100000,-0.100000)"
fill="#000000" stroke="none">
<path d="M10118 14053 c-18 -4 -33 -42 -31 -75 2 -16 -65 -66 -135 -102 -26
-13 -32 -23 -32 -49 0 -33 -5 -52 -40 -177 -25 -91 -26 -91 -33 -110 -3 -8
-22 -64 -43 -125 -20 -60 -41 -114 -45 -119 -5 -6 -9 -18 -9 -28 0 -10 -5 -18
-12 -18 -6 0 -9 -3 -6 -6 12 -12 -68 -188 -332 -729 -59 -121 -110 -230 -114
-242 -4 -13 -12 -23 -17 -23 -5 0 -8 -3 -7 -7 2 -8 -4 -20 -57 -119 -119 -219
-162 -325 -160 -398 2 -42 6 -53 31 -73 16 -12 40 -24 54 -24 54 -4 87 -3 130
4 49 7 127 15 235 22 76 5 131 13 155 22 8 3 22 7 30 8 8 2 41 12 73 23 31 12
57 18 57 15 0 -3 6 -1 13 4 11 9 41 19 88 28 9 2 22 -1 30 -5 11 -7 9 -14 -9
-39 -12 -17 -22 -33 -22 -36 0 -3 -9 -15 -19 -27 -27 -28 -19 -41 44 -74 30
-15 53 -29 51 -31 -2 -2 -32 -5 -67 -8 -83 -6 -113 -13 -174 -40 -55 -24 -101
-71 -111 -113 -10 -42 -14 -44 -40 -14 -66 72 -80 86 -117 109 -107 68 -231
58 -322 -25 -32 -29 -90 -112 -79 -112 4 0 0 -8 -8 -17 -9 -10 -19 -28 -22
-39 -9 -30 -53 -72 -97 -95 -32 -16 -39 -17 -49 -4 -9 11 -9 15 -1 15 6 0 11
5 11 11 0 6 9 24 21 40 11 16 17 29 12 29 -4 0 -3 4 2 8 6 4 23 27 37 52 109
191 126 240 84 248 -28 6 -163 -67 -199 -107 -18 -19 -45 -49 -62 -66 -75 -77
-178 -218 -237 -325 -29 -53 -70 -160 -62 -160 4 0 2 -6 -4 -12 -10 -14 -9
-71 3 -110 20 -62 123 -106 225 -95 39 4 70 20 166 86 66 44 124 85 131 91 7
5 24 15 38 22 14 6 25 15 25 20 0 4 4 8 9 8 9 0 100 57 111 70 5 5 108 69 183
114 48 28 77 37 77 25 0 -10 -58 -66 -71 -70 -4 -1 -56 -49 -115 -106 -148
-143 -191 -173 -319 -222 -137 -52 -185 -75 -257 -123 -66 -44 -105 -82 -120
-118 -18 -41 -18 -54 1 -86 11 -17 16 -36 12 -42 -9 -15 -81 -31 -121 -27 -19
2 -73 6 -120 10 -113 9 -120 14 -72 52 95 76 114 229 33 262 -42 18 -99 0
-147 -45 -49 -46 -135 -167 -141 -197 -6 -32 -14 -34 -133 -42 -109 -7 -223
-15 -280 -20 -109 -11 -1498 -3 -1895 10 -71 2 -247 7 -390 10 -143 3 -312 8
-375 10 -63 2 -232 7 -375 10 -143 4 -281 8 -307 10 -26 2 -113 6 -195 9 -81
3 -166 8 -188 11 -22 3 -87 7 -145 11 -120 6 -167 10 -230 18 -48 6 -149 16
-215 21 -22 2 -40 4 -40 5 0 3 -80 13 -188 25 -47 5 -65 8 -117 20 -14 3 -45
8 -70 11 -25 3 -54 8 -65 11 -11 4 -29 8 -40 9 -11 1 -31 5 -45 9 -14 3 -36 8
-50 11 -33 8 -35 8 -102 24 -32 7 -58 17 -58 22 0 5 -4 6 -10 3 -5 -3 -16 -3
-22 2 -7 4 -17 8 -23 9 -30 6 -106 46 -136 72 -27 23 -81 90 -100 122 -7 14
26 52 61 70 22 11 40 18 40 14 0 -4 6 -2 13 4 6 5 28 13 47 17 94 19 246 58
256 66 6 5 13 7 16 4 5 -6 78 23 136 53 43 23 82 72 82 104 0 32 -23 67 -54
82 -33 16 -173 15 -198 -1 -7 -4 -17 -8 -23 -8 -30 -3 -86 -18 -91 -26 -3 -5
-12 -9 -20 -9 -26 0 -166 -71 -244 -123 -96 -64 -176 -146 -206 -211 -38 -81
-35 -115 32 -396 14 -58 27 -114 28 -125 1 -12 6 -26 10 -33 4 -6 8 -26 10
-44 2 -18 6 -40 10 -48 3 -8 8 -28 10 -45 2 -16 6 -37 9 -45 3 -8 9 -33 12
-55 4 -22 9 -53 12 -70 3 -16 6 -40 7 -52 0 -13 4 -23 8 -23 4 0 6 -13 4 -30
-2 -16 0 -30 5 -30 4 0 8 -8 7 -17 0 -16 7 -61 18 -117 6 -28 15 -82 19 -115
2 -14 5 -26 6 -26 1 0 3 -13 4 -30 2 -16 4 -30 5 -30 1 0 8 -39 14 -90 3 -16
5 -31 6 -32 2 -2 4 -12 5 -23 1 -11 3 -21 4 -22 1 -2 4 -19 7 -38 2 -19 6 -46
8 -60 5 -29 17 -106 21 -135 2 -11 4 -22 5 -25 1 -3 2 -9 1 -14 -1 -5 1 -16 5
-25 3 -9 8 -27 9 -41 4 -33 12 -87 19 -130 4 -19 11 -62 17 -95 21 -118 70
-359 106 -518 20 -89 37 -171 38 -183 1 -11 4 -25 8 -30 7 -12 18 -58 21 -90
1 -11 5 -24 8 -30 6 -9 21 -72 18 -76 0 -2 6 -20 15 -40 8 -21 13 -38 11 -38
-3 0 1 -15 9 -32 7 -18 14 -36 14 -40 2 -10 9 -33 18 -55 3 -10 8 -26 9 -36 7
-31 36 -69 47 -58 10 10 13 140 3 182 -3 14 -8 45 -10 70 -3 24 -6 44 -7 44
-2 0 -7 27 -12 65 -2 14 -7 32 -10 40 -3 8 -8 29 -11 45 -4 26 -9 47 -21 105
-2 8 -4 15 -5 15 -1 0 -3 11 -6 25 -2 14 -7 32 -11 40 -3 8 -7 22 -8 30 -2 8
-6 26 -10 40 -4 14 -7 31 -7 38 -1 6 -5 12 -9 12 -4 0 -6 8 -5 18 2 9 -1 28
-7 42 -5 14 -11 32 -12 40 -1 8 -20 85 -43 170 -22 85 -50 203 -61 261 -20
103 -29 224 -19 234 3 3 15 -18 27 -47 12 -29 26 -62 31 -73 18 -43 78 -235
85 -272 2 -10 4 -18 5 -18 1 0 3 -7 5 -15 1 -8 8 -35 16 -60 7 -25 14 -54 16
-65 8 -35 11 -50 13 -50 1 0 3 -11 6 -25 2 -14 7 -32 10 -40 4 -8 8 -24 10
-35 5 -30 12 -60 14 -60 2 0 6 -19 15 -65 6 -35 22 -107 32 -145 3 -11 5 -28
5 -37 -1 -10 2 -18 6 -18 4 0 8 -16 10 -36 1 -20 5 -41 9 -48 4 -6 9 -22 11
-36 4 -32 59 -195 78 -232 16 -31 34 -29 34 4 0 12 2 19 5 16 3 -3 8 -74 11
-159 3 -85 7 -160 10 -167 2 -8 7 -37 10 -65 4 -29 12 -63 19 -77 7 -14 18
-60 25 -103 8 -46 20 -86 32 -99 23 -26 19 -78 -11 -137 -12 -22 -28 -69 -35
-103 -15 -64 -32 -225 -27 -243 2 -5 5 -32 7 -60 2 -27 9 -89 15 -137 6 -48
13 -104 15 -125 9 -83 34 -251 45 -300 6 -29 8 -57 4 -63 -3 -5 -2 -10 3 -10
6 0 9 -13 8 -30 -1 -16 1 -30 4 -30 4 0 7 -6 7 -12 0 -15 10 -81 19 -123 3
-16 7 -41 9 -55 2 -14 4 -25 5 -25 2 0 6 -19 15 -70 3 -22 8 -49 10 -60 3 -20
9 -46 22 -100 4 -16 7 -34 8 -40 1 -5 3 -12 4 -15 4 -7 11 -52 12 -70 0 -8 3
-22 6 -30 3 -8 8 -24 9 -35 2 -11 6 -36 10 -55 3 -19 6 -36 6 -37 -1 -2 4 -17
9 -35 6 -18 12 -48 15 -65 2 -18 13 -70 24 -115 11 -46 22 -94 25 -108 2 -14
24 -113 50 -220 25 -107 47 -204 49 -215 14 -66 58 -255 67 -282 6 -18 7 -37
4 -43 -3 -5 -1 -10 4 -10 6 0 10 -3 9 -7 -1 -5 2 -28 7 -53 11 -57 10 -52 18
-75 6 -18 14 -57 21 -95 2 -8 6 -26 9 -40 4 -14 9 -36 11 -50 3 -14 9 -40 15
-58 5 -18 10 -35 10 -37 1 -3 1 -6 2 -7 0 -2 2 -12 4 -23 5 -29 14 -70 31
-139 8 -34 18 -77 21 -96 3 -19 9 -36 13 -38 5 -2 6 -10 4 -17 -3 -8 -2 -19 2
-26 4 -7 9 -24 10 -38 3 -27 11 -66 14 -66 1 0 4 -18 6 -40 3 -21 9 -44 14
-50 6 -7 8 -14 5 -17 -3 -2 4 -47 16 -99 21 -97 85 -399 121 -574 11 -55 22
-111 24 -125 1 -14 3 -26 4 -27 2 -2 3 -6 4 -10 2 -5 7 -26 14 -48 6 -22 13
-53 16 -70 3 -16 10 -48 15 -70 5 -22 12 -51 15 -65 3 -14 8 -36 11 -50 3 -14
9 -38 12 -55 8 -43 11 -59 14 -65 1 -3 3 -9 4 -15 2 -5 4 -12 5 -15 2 -7 8
-29 14 -60 11 -49 15 -66 31 -120 9 -30 17 -64 16 -74 0 -11 5 -28 11 -39 5
-11 11 -29 13 -41 4 -32 21 -101 48 -196 14 -47 41 -146 62 -220 113 -411 141
-490 177 -490 10 0 18 -4 18 -10 0 -5 5 -10 10 -10 6 0 63 -22 128 -50 204
-85 461 -171 647 -215 6 -1 17 -5 25 -8 8 -4 29 -8 45 -11 17 -2 32 -5 35 -7
3 -1 10 -3 15 -4 6 -2 12 -4 15 -5 3 -1 14 -3 25 -5 31 -4 92 -17 148 -30 12
-4 36 -8 52 -10 17 -3 41 -7 55 -10 14 -4 36 -8 50 -10 14 -2 39 -6 55 -9 37
-6 212 -33 280 -42 55 -7 53 -7 173 -19 45 -4 82 -11 82 -16 0 -5 6 -6 14 -3
8 3 67 0 132 -5 66 -6 151 -14 189 -16 39 -3 95 -8 125 -10 348 -27 1119 -27
1590 0 454 27 515 31 630 44 41 5 82 9 90 9 8 -1 38 2 65 6 28 3 74 8 103 11
28 2 55 6 60 8 4 3 39 8 78 11 40 3 78 8 85 11 14 4 76 14 134 20 17 1 30 4
30 5 0 2 11 4 25 5 14 1 41 6 60 10 19 4 44 9 55 11 24 4 61 12 95 20 14 3 37
7 53 8 15 0 27 4 27 8 0 4 9 5 20 3 11 -2 20 0 20 5 0 5 9 7 20 5 11 -2 20 0
20 5 0 4 7 7 16 6 9 -1 46 6 83 16 36 10 77 20 91 23 14 3 41 9 60 15 100 31
241 66 320 81 202 37 332 101 447 216 32 32 71 79 88 103 16 25 34 48 40 52 5
4 7 8 2 8 -4 0 3 17 16 37 13 21 24 40 25 43 1 9 22 64 32 85 19 42 59 198 75
300 11 62 13 98 20 280 8 224 9 232 70 640 13 88 26 179 30 202 3 23 8 57 11
75 3 18 7 51 9 73 2 22 4 40 5 40 3 0 8 31 14 90 3 33 8 76 11 95 3 19 8 53
10 75 2 22 7 58 10 80 7 50 17 138 30 270 3 33 8 80 11 105 4 45 8 88 20 210
3 36 7 88 9 115 1 28 3 50 4 50 1 0 4 32 7 70 3 39 7 88 9 110 6 55 17 193 18
233 1 17 4 32 7 32 3 0 6 24 7 53 1 58 9 162 12 162 1 0 4 35 6 78 3 43 7 90
10 105 3 15 7 65 10 112 3 47 7 110 10 140 7 68 12 137 19 260 3 52 8 129 11
170 2 41 7 118 10 170 3 52 7 124 10 160 7 100 14 212 30 495 8 143 17 292 20
330 5 83 13 206 20 330 3 50 7 122 10 160 2 39 7 115 10 170 3 55 8 127 10
160 3 33 7 106 10 161 3 56 7 117 9 135 3 19 8 84 11 144 3 61 8 126 10 146 2
19 6 73 9 120 4 46 9 103 11 126 3 24 8 76 10 115 2 40 5 73 5 73 1 0 3 18 5
40 6 68 15 158 19 195 3 19 7 62 11 95 3 33 8 83 11 110 3 28 7 66 9 85 2 19
6 58 10 85 15 117 17 142 18 173 0 17 3 32 7 32 3 0 6 12 7 28 0 15 3 45 7 67
4 22 9 51 11 65 1 14 5 39 8 55 9 47 19 119 20 133 0 6 4 12 9 12 5 0 7 4 4 9
-4 5 -1 33 5 63 7 29 12 59 12 66 0 6 4 12 9 12 5 0 6 5 3 10 -4 6 0 41 9 78
25 111 48 252 61 382 4 36 8 78 10 95 27 226 27 799 0 1010 -2 17 -8 75 -14
130 -7 55 -21 159 -32 230 -19 117 -27 163 -45 245 -9 43 -15 74 -19 95 -2 11
-4 21 -5 23 -2 1 -3 6 -4 11 0 5 -4 13 -8 17 -5 4 -8 18 -8 30 0 13 -4 33 -9
46 -16 42 -36 113 -33 121 1 4 -3 7 -9 7 -5 0 -8 4 -5 8 2 4 -1 21 -9 37 -7
17 -23 57 -35 90 -12 33 -35 88 -51 123 -16 35 -29 65 -29 68 0 10 -203 409
-221 435 -10 14 -16 29 -12 33 3 3 2 6 -4 6 -9 0 -35 46 -35 60 1 3 -7 14 -17
25 -10 11 -21 27 -24 36 -13 37 -271 410 -322 465 -5 6 -30 35 -55 65 -73 88
-259 271 -345 341 -92 74 -210 155 -275 188 -25 12 -48 28 -52 34 -4 6 -8 8
-8 4 0 -4 -24 4 -52 16 -56 25 -121 37 -150 29z m652 -1463 c6 -11 8 -20 6
-20 -3 0 -2 -10 3 -23 12 -31 -21 -136 -62 -197 -34 -52 -174 -191 -217 -217
-17 -9 -30 -21 -30 -25 0 -4 -6 -8 -14 -8 -8 0 -16 -4 -18 -8 -1 -5 -56 -43
-121 -86 -64 -43 -120 -82 -123 -87 -3 -5 -10 -7 -15 -4 -5 4 -9 2 -9 -3 0
-11 -50 -35 -58 -28 -7 8 19 66 29 66 5 0 9 5 9 10 0 10 25 41 93 114 20 23
37 44 37 48 0 5 4 8 9 8 35 0 431 411 431 447 0 11 21 33 32 33 4 0 12 -9 18
-20z m89 -637 c7 -21 14 -47 16 -58 2 -11 4 -20 5 -20 3 0 10 -41 11 -70 2
-32 -16 -75 -31 -75 -12 0 -42 -84 -43 -123 -2 -58 30 -121 88 -176 30 -29 59
-50 64 -47 5 4 11 3 13 -2 5 -12 88 -48 146 -63 30 -7 57 -20 61 -29 8 -14 7
-47 -1 -55 -2 -2 -38 12 -81 31 -42 19 -85 37 -94 39 -10 2 -31 8 -48 12 -16
5 -37 8 -45 7 -8 -1 -24 -2 -36 -3 -33 -2 -63 -36 -58 -68 10 -70 12 -76 54
-167 36 -81 28 -102 -80 -216 -74 -78 -215 -145 -370 -175 -8 -2 -49 -10 -90
-18 -41 -8 -82 -15 -90 -15 -15 -1 -53 -7 -98 -17 -21 -5 -77 -13 -147 -20
-16 -2 -30 -5 -30 -5 0 -1 -13 -4 -30 -6 -80 -12 -112 -16 -132 -17 -13 -1
-23 -6 -23 -11 0 -5 -3 -7 -6 -3 -3 3 -17 2 -31 -4 -17 -6 -22 -6 -17 2 4 8 1
8 -12 1 -28 -14 -195 -50 -269 -58 -22 -2 -67 -7 -100 -11 -99 -10 -305 -7
-318 6 -8 8 -7 11 4 12 7 0 21 2 29 4 51 13 117 25 160 30 14 2 26 4 28 5 1 1
11 4 22 5 11 1 21 3 23 5 1 1 16 3 32 4 17 2 50 7 75 11 25 4 57 8 71 10 14 1
30 4 35 7 5 2 19 3 32 2 12 0 22 1 22 5 0 3 17 6 38 7 20 1 62 4 92 7 30 4 82
9 114 12 71 5 135 14 159 21 9 3 36 7 60 9 97 9 261 40 282 53 5 4 21 8 34 10
46 6 188 69 248 110 141 95 208 234 174 359 -17 62 -50 76 -176 79 -55 1 -104
-1 -110 -4 -5 -3 -22 -7 -39 -9 -16 -2 -39 -5 -50 -8 -31 -6 -67 -13 -101 -19
-16 -3 -40 -7 -52 -10 -37 -8 -26 8 20 31 102 50 133 105 85 156 -24 24 -107
67 -132 67 -22 0 -30 20 -9 21 10 1 27 3 38 5 11 1 49 5 85 8 140 13 232 34
288 68 17 11 32 17 32 15 0 -13 82 70 95 96 27 54 11 119 -41 168 -26 24 -32
49 -11 49 6 0 37 16 67 35 71 44 84 44 99 -2z m-8423 -1533 c12 -5 24 -7 26
-4 3 2 58 -2 124 -10 65 -8 148 -17 184 -20 36 -4 83 -8 105 -10 22 -2 78 -7
125 -11 47 -3 101 -8 120 -10 19 -3 85 -7 146 -10 61 -3 119 -7 130 -9 10 -2
75 -7 144 -10 69 -4 143 -9 165 -11 22 -3 103 -7 180 -10 77 -4 154 -8 170
-10 17 -2 104 -7 195 -10 91 -4 183 -8 205 -10 22 -2 126 -6 230 -10 105 -4
210 -8 235 -10 25 -2 128 -6 230 -10 102 -3 241 -8 310 -10 69 -3 224 -7 345
-10 121 -2 220 -5 220 -6 0 -1 65 -3 145 -5 80 -2 235 -6 345 -9 329 -9 522
-15 665 -19 156 -4 197 -11 205 -35 5 -18 17 -20 155 -26 111 -4 162 -25 127
-50 -10 -7 -17 -16 -17 -20 0 -12 -408 -415 -420 -415 -6 0 -8 -4 -5 -10 3 -5
2 -10 -4 -10 -6 0 -39 -28 -75 -62 -36 -35 -91 -85 -123 -113 -31 -27 -80 -72
-109 -100 -29 -27 -61 -57 -72 -65 -10 -8 -48 -41 -83 -72 -35 -31 -75 -66
-89 -78 -14 -12 -58 -52 -99 -88 -41 -37 -84 -76 -97 -87 -12 -11 -60 -55
-106 -97 -45 -42 -94 -86 -108 -97 -14 -11 -32 -26 -40 -33 -74 -64 -319 -248
-330 -248 -6 0 -8 -4 -5 -10 3 -5 2 -10 -4 -10 -6 0 -49 -29 -96 -65 -48 -36
-89 -65 -92 -65 -3 0 -17 -9 -33 -20 -29 -21 -165 -54 -181 -45 -5 3 3 24 16
45 14 22 25 44 25 49 0 5 7 14 15 21 9 7 14 18 12 23 -2 6 4 18 13 27 19 19
126 61 134 53 3 -4 6 -1 6 5 0 7 3 11 8 10 10 -3 126 54 130 64 2 4 10 8 17 8
7 0 36 16 65 35 29 19 56 35 61 35 5 0 9 4 9 8 0 4 13 15 29 25 70 41 247 194
371 322 33 33 92 94 132 135 40 41 107 100 148 131 41 31 100 76 131 100 31
24 68 53 83 64 26 19 195 149 265 204 18 14 48 38 65 53 17 15 34 28 39 28 4
0 7 7 7 15 0 8 6 15 13 15 6 0 20 12 30 25 21 29 18 31 -53 40 -132 16 -805
-5 -805 -25 0 -2 -34 -9 -78 -16 -54 -8 -59 -10 -92 -23 -29 -12 -45 -15 -160
-27 -27 -3 -245 -6 -482 -7 -238 -1 -433 -4 -433 -7 0 -3 -57 -6 -128 -7 -70
-1 -167 -4 -217 -7 -282 -18 -302 -20 -440 -31 -128 -11 -150 -13 -150 -14 0
-1 -29 -4 -65 -7 -36 -2 -81 -6 -100 -8 -46 -6 -172 -18 -187 -19 -7 0 -13 -3
-13 -6 0 -3 -24 -7 -53 -7 -28 -1 -68 -5 -87 -8 -19 -4 -53 -9 -75 -11 -41 -6
-80 -12 -80 -15 0 -1 -20 -3 -45 -5 -25 -2 -54 -6 -65 -9 -11 -3 -63 -14 -115
-25 -172 -36 -271 -70 -371 -127 -53 -30 -123 -64 -155 -75 -61 -22 -154 -32
-154 -17 0 5 -5 6 -10 3 -6 -4 -17 -1 -25 5 -8 7 -15 10 -15 6 0 -12 -55 27
-92 66 -44 46 -86 121 -126 227 -29 75 -78 256 -86 317 -2 16 -6 36 -9 44 -6
17 -16 74 -23 133 -3 23 -7 44 -10 48 -2 5 -2 19 2 32 5 23 21 31 79 41 20 4
45 18 45 26 0 5 -17 18 -37 31 -71 42 -138 98 -157 130 l-19 31 99 -7 c54 -4
108 -11 120 -15z m5860 -617 c3 -84 -1 -115 -26 -213 -17 -63 -44 -155 -61
-205 -17 -49 -32 -94 -34 -100 -1 -5 -4 -17 -7 -25 -3 -8 -15 -42 -25 -75 -11
-33 -25 -77 -32 -98 -7 -20 -14 -48 -17 -62 -2 -14 -7 -37 -10 -52 -11 -48
-13 -263 -3 -263 6 0 8 -4 5 -9 -6 -9 22 -108 36 -126 4 -5 19 -23 33 -39 14
-16 25 -32 25 -36 0 -4 22 -16 48 -27 87 -36 203 -14 280 53 17 16 32 32 32
36 0 5 8 16 18 26 9 10 27 31 39 45 41 48 69 28 98 -70 8 -28 22 -53 30 -57
24 -9 17 -32 -12 -46 -35 -16 -52 -19 -133 -24 -36 -3 -65 -5 -65 -6 0 -1 -31
-2 -70 -3 -38 -1 -76 -6 -84 -11 -8 -5 -31 -11 -50 -13 -61 -6 -416 -15 -631
-17 -124 0 -208 -5 -212 -11 -5 -7 -8 -7 -8 0 0 6 -28 9 -72 8 -40 -2 -77 -3
-83 -3 -60 1 -533 11 -542 12 -21 2 -15 18 7 19 25 2 22 1 95 23 117 34 212
112 293 238 23 35 46 69 52 76 6 6 8 12 4 12 -3 0 -2 6 4 13 5 6 21 32 34 57
14 25 42 77 63 115 21 39 50 93 63 120 13 28 27 52 31 55 3 3 19 30 34 60 16
30 41 78 57 105 16 28 33 59 39 70 19 38 86 101 142 133 76 43 181 59 214 32
14 -12 12 -68 -5 -100 -6 -11 -9 -20 -6 -20 5 0 -45 -134 -69 -185 -8 -17 -28
-66 -45 -110 -17 -44 -37 -92 -45 -107 -8 -14 -15 -31 -15 -36 0 -6 -5 -23
-12 -39 -6 -15 -11 -31 -10 -35 1 -5 -3 -8 -9 -8 -5 0 -8 -4 -5 -8 3 -5 -1
-19 -8 -33 -7 -13 -11 -30 -8 -37 2 -6 -2 -12 -9 -12 -7 0 -9 -3 -6 -7 4 -3 2
-12 -4 -20 -6 -7 -9 -13 -5 -13 3 0 1 -11 -4 -26 -25 -64 -28 -151 -8 -183 18
-30 43 -35 97 -20 82 22 156 80 166 129 1 3 4 14 8 25 3 11 9 34 12 50 3 17 7
35 9 40 1 6 7 33 11 60 10 57 12 64 15 68 3 4 11 41 12 57 0 8 5 21 11 28 5 6
7 12 4 12 -3 0 3 29 13 65 10 36 19 69 20 73 4 30 13 60 21 75 6 11 8 21 5 24
-3 3 1 18 10 34 8 16 12 29 10 29 -3 0 -1 12 5 28 10 25 13 35 23 80 10 42 40
128 50 141 9 12 8 13 -2 7 -10 -6 -9 0 2 23 9 17 16 32 16 33 -2 5 36 119 50
153 5 11 18 43 30 70 53 125 72 120 76 -22z m740 57 c41 -16 94 -41 119 -55
25 -13 45 -21 45 -17 0 4 4 2 8 -4 6 -8 93 -54 112 -59 7 -2 120 -54 142 -66
10 -5 27 -9 38 -9 11 0 20 -5 20 -11 0 -5 4 -8 8 -5 5 3 30 -1 56 -9 31 -9 78
-13 139 -10 112 5 146 -3 272 -61 76 -36 216 -121 223 -136 2 -5 8 -8 14 -8 5
0 15 -6 22 -12 8 -7 23 -20 35 -28 29 -20 26 -32 -6 -26 -79 15 -150 41 -261
94 -34 17 -86 38 -115 48 -29 9 -65 22 -82 29 -105 43 -277 77 -330 65 -5 -1
-16 -3 -24 -4 -8 0 -19 -9 -25 -19 -9 -16 -4 -25 39 -63 27 -24 76 -60 110
-81 33 -20 78 -48 100 -62 22 -14 46 -26 54 -27 8 -2 17 -8 21 -14 4 -7 10
-11 13 -11 4 0 28 -9 54 -20 27 -12 66 -28 88 -36 22 -8 49 -19 60 -24 11 -5
61 -20 110 -35 155 -44 183 -49 295 -48 99 0 135 5 200 28 59 20 75 -3 40 -59
-34 -54 -85 -68 -253 -68 -78 0 -158 3 -177 7 -54 10 -75 14 -75 16 0 1 -13 4
-30 6 -52 9 -197 60 -288 103 -48 23 -92 41 -97 41 -6 0 -10 3 -10 8 0 4 -17
15 -37 24 -48 22 -92 48 -117 71 -11 9 -26 17 -33 17 -7 0 -13 4 -13 8 0 5
-22 23 -50 41 -27 18 -50 37 -50 42 0 5 -6 9 -13 9 -7 0 -19 9 -27 20 -8 11
-19 20 -25 20 -6 0 -21 10 -32 23 -11 12 -57 55 -102 96 -156 141 -271 262
-271 286 0 22 22 19 106 -15z m-1412 -141 c-24 -46 -85 -141 -106 -163 -10
-11 -18 -23 -18 -27 0 -4 -6 -14 -12 -21 -7 -7 -25 -31 -40 -53 -15 -22 -41
-55 -58 -73 -16 -18 -30 -35 -30 -38 0 -8 -95 -115 -180 -204 -19 -20 -116
-121 -215 -225 -99 -103 -194 -202 -211 -220 -120 -125 -170 -216 -145 -264 7
-11 19 -21 28 -21 11 0 14 -3 7 -10 -5 -5 -84 -12 -174 -14 -324 -10 -395 -13
-413 -21 -9 -4 -29 -4 -43 -1 -37 10 -18 25 37 31 68 7 100 16 166 46 23 10
48 20 55 21 7 2 15 6 18 9 3 4 25 17 50 29 25 12 47 25 50 29 3 3 22 15 43 25
21 11 48 29 61 40 13 12 34 28 48 36 36 21 318 283 318 295 0 1 21 24 48 51
46 49 64 68 172 193 30 35 65 74 78 87 12 13 22 25 22 28 0 6 67 81 140 157
30 31 102 107 160 169 86 92 137 137 158 140 1 0 -5 -14 -14 -31z m1686 -939
c24 -13 58 -60 64 -91 3 -13 9 -37 12 -54 11 -47 19 -50 169 -62 203 -16 465
-7 608 21 68 13 78 9 58 -23 -10 -16 -26 -21 -86 -26 -81 -7 -121 -13 -150
-25 -16 -6 -50 -14 -75 -17 -84 -9 -920 -11 -920 -1 0 5 5 6 10 3 6 -3 10 -2
10 2 0 5 8 9 18 10 9 0 28 4 42 7 14 3 34 8 46 10 60 12 184 93 184 121 0 15
-38 49 -77 69 -40 20 -42 39 -5 53 36 14 69 15 92 3z m-345 -3350 c125 -28
345 -118 345 -141 0 -5 5 -9 11 -9 12 0 75 -45 106 -76 12 -12 31 -28 41 -36
29 -20 144 -168 167 -213 11 -22 22 -42 25 -45 14 -14 83 -190 74 -190 -3 0
-2 -6 2 -12 5 -7 9 -22 11 -33 17 -128 21 -186 14 -200 -3 -5 -7 -28 -8 -50
-2 -36 -9 -80 -13 -80 -1 0 -3 -9 -5 -20 -21 -120 -128 -307 -235 -410 -98
-94 -99 -95 -185 -142 -146 -80 -301 -112 -560 -117 -106 -2 -138 0 -275 25
-239 43 -459 183 -589 373 -25 36 -88 162 -111 221 -45 114 -70 346 -48 435 5
19 10 44 12 55 2 11 4 20 5 20 1 0 4 11 6 25 5 39 60 153 103 217 160 235 470
402 782 420 52 3 96 6 97 7 6 5 185 -14 228 -24z m-2740 -104 c33 -9 76 -23
95 -32 84 -36 150 -70 150 -76 0 -5 7 -8 15 -8 8 0 15 -4 15 -10 0 -5 5 -10
11 -10 18 0 170 -114 214 -160 22 -23 48 -49 58 -58 9 -9 17 -22 17 -29 0 -7
4 -13 8 -13 12 0 74 -107 95 -164 44 -116 59 -191 61 -306 1 -63 -1 -125 -5
-137 -4 -12 -10 -39 -13 -60 -2 -21 -11 -57 -19 -80 -9 -22 -13 -44 -10 -47 4
-3 1 -6 -5 -6 -7 0 -12 -6 -12 -13 0 -7 -9 -29 -20 -50 -11 -20 -18 -37 -16
-37 15 0 -107 -163 -163 -219 -67 -68 -172 -151 -190 -151 -5 0 -11 -3 -13 -7
-9 -22 -213 -107 -230 -97 -4 3 -8 1 -8 -5 0 -5 -8 -8 -17 -6 -10 1 -22 -1
-28 -5 -5 -4 -17 -8 -25 -8 -8 -1 -35 -4 -60 -7 -69 -10 -268 -6 -290 5 -3 1
-16 3 -30 4 -43 3 -100 18 -106 27 -3 5 -9 7 -13 5 -11 -7 -143 48 -216 89
-124 70 -247 177 -336 294 -65 86 -143 245 -170 346 -26 101 -35 251 -20 341
10 65 88 323 117 389 23 52 79 101 146 125 35 12 74 27 88 33 14 6 30 11 35
12 6 0 18 4 28 8 26 11 51 20 62 23 6 2 35 10 65 20 128 38 270 75 340 88 102
18 317 14 395 -8z m-2669 -1114 c6 -10 15 -32 19 -50 3 -18 11 -32 16 -32 6 0
7 -5 4 -10 -4 -6 -1 -17 5 -25 7 -8 9 -15 6 -15 -4 0 -4 -5 0 -12 4 -7 9 -21
10 -33 6 -52 53 -242 124 -508 10 -37 19 -70 19 -72 1 -3 3 -10 6 -17 3 -11
28 -105 41 -158 2 -8 12 -50 24 -94 11 -43 17 -82 14 -87 -3 -5 0 -9 7 -9 7 0
10 -3 7 -6 -3 -3 0 -28 8 -56 7 -28 11 -55 8 -59 -2 -4 0 -10 5 -14 5 -3 9
-13 9 -23 0 -9 2 -30 6 -47 20 -90 27 -281 13 -335 -8 -31 -9 -32 -25 -14 -28
31 -56 78 -59 99 -2 11 -8 21 -13 23 -5 2 -6 10 -3 18 3 8 1 14 -5 14 -6 0 -9
8 -8 18 2 9 -1 31 -6 47 -5 17 -11 48 -14 70 -2 22 -7 51 -11 65 -3 14 -6 28
-5 31 5 27 -53 362 -108 618 -16 79 -28 146 -25 149 3 3 1 10 -4 16 -5 6 -12
29 -14 51 -2 22 -7 47 -11 55 -3 8 -8 35 -10 60 -3 25 -5 45 -6 45 -3 0 -20
88 -25 130 -2 17 -4 30 -5 30 -4 0 -9 37 -14 98 -5 59 1 70 20 39z m3707
-1417 c24 -15 42 -44 67 -110 18 -46 37 -177 30 -205 -4 -14 -6 -35 -5 -47 1
-13 -1 -23 -5 -23 -3 0 -11 -21 -18 -46 -16 -60 -93 -138 -153 -155 -137 -38
-181 17 -159 195 24 188 40 259 72 317 48 87 110 114 171 74z m477 -28 c48
-29 66 -52 102 -125 24 -50 31 -81 36 -148 9 -147 -41 -255 -141 -303 -66 -32
-99 -28 -147 19 -22 21 -40 46 -40 55 0 8 -5 15 -11 15 -5 0 -8 3 -5 8 2 4 -2
34 -9 67 -42 180 -11 407 59 431 70 24 90 22 156 -19z m-3744 -457 c5 -28 12
-65 14 -70 2 -3 2 -9 1 -14 -1 -5 1 -16 5 -25 4 -9 8 -27 10 -40 2 -13 6 -31
10 -40 4 -9 9 -27 11 -41 2 -14 6 -32 10 -40 3 -8 7 -20 8 -26 2 -6 17 -56 33
-110 17 -54 60 -193 96 -309 35 -115 69 -222 75 -237 6 -16 8 -28 5 -28 -3 0
-2 -6 3 -12 4 -7 9 -19 10 -25 7 -31 12 -48 13 -48 1 0 3 -9 5 -20 5 -26 13
-60 15 -60 2 0 10 -34 14 -60 2 -11 4 -20 6 -20 2 0 10 -44 11 -65 0 -8 3 -22
6 -30 17 -44 24 -273 9 -287 -10 -10 -53 42 -68 85 -7 17 -16 32 -21 32 -4 0
-6 3 -3 8 2 4 -3 23 -12 42 -8 19 -16 37 -17 40 -1 3 -17 55 -37 115 -34 105
-49 165 -99 400 -11 55 -34 145 -50 201 -16 55 -30 109 -32 120 -1 10 -6 24
-9 30 -4 6 -9 21 -12 35 -3 13 -14 55 -25 94 -11 38 -17 73 -15 77 3 4 1 8 -5
8 -5 0 -10 8 -10 18 0 9 -4 35 -10 56 -5 22 -8 43 -5 47 2 4 0 10 -5 13 -5 3
-8 22 -6 41 1 20 -2 38 -7 41 -4 3 -5 10 -2 16 4 6 8 21 9 32 3 28 16 59 29
68 16 12 39 5 42 -12z m274 -260 c0 -3 10 -26 22 -51 12 -24 23 -46 23 -49 1
-3 8 -21 17 -41 9 -20 19 -47 22 -60 4 -13 11 -33 16 -44 5 -11 21 -58 36
-105 15 -47 29 -89 33 -95 3 -5 6 -16 6 -25 1 -8 18 -73 38 -145 45 -164 118
-444 122 -470 1 -11 5 -27 8 -35 5 -15 33 -134 41 -180 3 -14 8 -35 12 -47 3
-13 2 -23 -2 -23 -16 0 -219 435 -226 482 -2 13 -6 25 -9 28 -6 5 -59 152 -64
179 -2 9 -4 17 -4 19 -1 1 -1 5 -2 10 0 4 -5 13 -11 20 -6 7 -8 15 -5 19 4 3
2 14 -4 25 -6 11 -12 28 -15 39 -2 10 -7 29 -10 42 -3 12 -6 28 -6 35 -1 6 -6
12 -11 12 -5 0 -6 7 -3 16 3 9 3 21 -1 27 -4 7 -8 18 -9 27 -1 8 -5 26 -8 40
-3 14 -8 36 -11 50 -2 14 -7 38 -11 53 -9 43 -20 108 -29 177 -1 14 -4 25 -5
25 -1 0 -3 36 -6 80 l-5 80 31 -54 c16 -30 30 -57 30 -61z"/>
<path d="M7662 9333 c-12 -16 -39 -53 -61 -83 -22 -30 -45 -60 -51 -67 -5 -7
-10 -15 -10 -18 0 -3 -5 -11 -10 -18 -6 -7 -31 -39 -55 -72 -25 -33 -49 -65
-53 -70 -5 -6 -32 -46 -62 -90 -30 -44 -57 -82 -60 -85 -7 -7 -29 -42 -37 -60
-3 -8 -14 -26 -23 -40 -9 -14 -27 -53 -39 -86 -44 -119 3 -213 94 -190 32 8
56 27 127 99 57 58 178 231 178 254 0 7 5 13 10 13 6 0 10 6 10 13 0 6 14 39
30 72 16 33 30 68 30 77 0 9 4 19 9 22 5 4 12 25 16 49 4 23 10 46 13 51 9 16
17 121 13 198 -1 25 -24 58 -40 58 -5 0 -17 -12 -29 -27z"/>
<path d="M8110 4884 c-49 -17 -110 -49 -110 -56 0 -4 -5 -8 -11 -8 -11 0 -43
-30 -82 -79 -10 -12 -31 -48 -47 -79 -81 -161 -79 -308 6 -419 19 -24 34 -42
34 -39 0 4 17 -5 38 -19 56 -37 127 -55 222 -55 127 0 250 36 279 82 16 26
-10 61 -94 127 -36 28 -65 56 -65 61 0 11 9 11 158 14 118 1 136 12 134 81 0
63 -70 201 -137 273 -71 77 -146 114 -240 118 -38 2 -77 1 -85 -2z"/>
<path d="M5324 4743 c-109 -37 -197 -108 -270 -218 -162 -244 2 -466 334 -450
291 14 447 231 331 462 -50 98 -154 190 -239 211 -40 9 -121 7 -156 -5z"/>
<path d="M8025 11742 c-4 -4 -154 -13 -247 -14 -32 -1 -58 -4 -58 -7 0 -3 -33
-7 -73 -8 -95 -2 -332 -11 -332 -13 0 0 -67 -3 -150 -5 -82 -2 -202 -7 -265
-10 -63 -3 -221 -8 -350 -11 -129 -2 -289 -6 -355 -8 -66 -2 -291 -6 -500 -10
-209 -3 -479 -8 -600 -11 -121 -3 -345 -7 -497 -10 -153 -4 -287 -8 -298 -10
-12 -2 -58 -7 -103 -10 -159 -12 -424 -55 -732 -120 -310 -65 -281 -53 -294
-117 -7 -28 -19 -58 -29 -65 -10 -9 -11 -12 -2 -7 8 4 3 -5 -13 -21 -15 -15
-27 -33 -27 -40 0 -7 -6 -18 -14 -25 -8 -6 -12 -18 -9 -27 9 -23 103 -11 281
35 84 22 156 40 160 41 4 1 25 7 47 13 22 6 50 12 62 13 11 2 31 6 43 10 12 4
32 8 43 10 21 3 44 8 97 21 14 3 36 7 50 9 14 2 25 4 25 5 0 3 48 11 143 26
20 3 51 8 67 11 17 3 39 7 50 8 51 7 134 18 170 21 104 11 133 14 165 18 84
10 167 19 188 19 12 1 22 3 22 7 0 3 15 6 33 6 50 2 91 7 101 12 4 2 27 6 51
8 24 2 56 6 71 9 16 3 53 8 83 11 30 3 62 7 71 9 10 2 53 6 96 10 43 4 95 9
114 11 51 5 331 5 360 0 14 -2 48 -7 75 -10 59 -7 194 -40 248 -61 55 -22 74
-19 126 19 25 18 61 37 80 41 50 11 157 9 229 -5 34 -6 79 -13 98 -16 20 -2
39 -6 43 -8 3 -3 26 -7 51 -11 25 -4 47 -8 50 -10 15 -9 147 -19 272 -19 76
-1 138 -3 138 -6 0 -3 129 -6 288 -8 589 -7 574 -7 709 14 21 3 40 10 41 15 2
5 7 7 12 4 8 -5 77 16 120 38 69 34 81 114 29 185 -17 23 -36 43 -42 44 -24 3
-208 3 -212 0z"/>
</g>
</svg>
